<?xml version="1.0" standalone="no"?>
<!DOCTYPE svg PUBLIC "-//W3C//DTD SVG 20010904//EN"
 "http://www.w3.org/TR/2001/REC-SVG-20010904/DTD/svg10.dtd">
<svg version="1.0" xmlns="http://www.w3.org/2000/svg"
 width="1618.000000pt" height="1618.000000pt" viewBox="0 0 1618.000000 1618.000000"
 preserveAspectRatio="xMidYMid meet">
<metadata>
Created by potrace 1.11, written by Peter Selinger 2001-2013
</metadata>
<g transform="translate(0.000000,1618.000000) scale(0.100000,-0.100000)"
fill="#000000" stroke="none">
<path d="M3694 11283 l1 -418 4393 0 c3034 -1 4392 2 4393 10 3 30 -1 97 -6
105 -3 6 -3 10 2 10 4 0 7 33 5 72 -3 85 -3 74 -1 159 1 36 0 70 -4 75 -3 6
-2 16 2 23 5 7 5 30 1 52 -4 21 -4 39 -1 39 8 0 5 76 -4 89 -3 5 -2 12 3 15 8
5 7 79 -2 103 -3 7 -2 13 2 13 5 0 6 16 4 35 l-4 35 -4393 0 -4392 0 1 -417z"/>
<path d="M13237 11288 c1 -227 2 -415 2 -418 1 -3 223 -6 494 -6 445 0 497 -2
549 -18 90 -29 152 -102 165 -196 3 -19 6 -440 7 -935 1 -495 5 -911 9 -925 4
-14 9 -36 11 -50 11 -69 16 -85 57 -180 53 -124 175 -267 299 -350 12 -8 35
-24 51 -36 l29 -21 -72 -49 c-69 -47 -228 -196 -228 -214 0 -5 -6 -15 -14 -22
-38 -38 -108 -214 -122 -303 -2 -16 -7 -37 -11 -45 -3 -8 -7 -436 -8 -950 -2
-514 -5 -953 -9 -974 -10 -59 -45 -123 -84 -153 -71 -53 -86 -55 -622 -58
-272 -1 -497 -3 -500 -4 -4 -1 -5 -807 -1 -844 1 -9 1075 -3 1135 6 184 29
339 80 477 158 41 23 76 45 79 48 3 4 21 18 40 31 32 22 163 151 200 197 83
102 186 329 205 448 3 17 10 54 16 84 5 29 8 59 5 67 -3 7 -1 16 4 19 5 3 9
407 10 948 0 637 4 955 11 982 25 91 72 144 152 172 43 14 95 17 312 19 143 2
265 3 271 3 7 1 11 133 11 446 0 445 0 445 -21 446 -12 0 -118 1 -236 0 -118
0 -245 5 -282 10 -93 15 -149 53 -185 127 l-28 57 -3 245 c-1 135 -4 553 -6
930 -4 629 -7 737 -23 780 -3 8 -7 24 -9 35 -38 221 -184 466 -371 622 -12 10
-30 26 -41 35 -11 9 -31 22 -44 29 -13 6 -25 15 -28 19 -7 11 -165 90 -179 90
-6 0 -11 5 -11 12 0 6 -2 9 -6 6 -3 -3 -27 3 -55 13 -27 10 -49 16 -49 13 0
-4 -6 -2 -12 4 -7 6 -31 14 -53 18 -22 5 -42 9 -45 9 -13 4 -79 16 -110 21
-19 4 -282 8 -585 11 l-550 4 2 -413z"/>
<path d="M1879 11676 c-2 -2 -33 -7 -68 -10 -139 -13 -370 -86 -457 -143 -16
-10 -30 -17 -31 -15 -2 1 -36 -20 -76 -47 -79 -53 -183 -150 -237 -221 -19
-25 -37 -47 -40 -50 -19 -18 -127 -235 -134 -268 -1 -9 -6 -24 -9 -32 -11 -28
-36 -128 -43 -175 -2 -16 -7 -48 -11 -70 -3 -22 -7 -450 -8 -950 -2 -1005 -1
-982 -65 -1057 -17 -20 -54 -46 -83 -59 -49 -22 -65 -23 -317 -25 -146 -1
-272 -3 -280 -3 -13 -1 -15 -56 -15 -436 0 -239 2 -435 5 -436 3 0 122 -2 265
-4 152 -1 274 -7 294 -14 76 -24 143 -89 157 -153 3 -13 7 -34 10 -48 3 -14 7
-448 9 -965 2 -517 6 -956 9 -975 3 -19 8 -46 11 -60 3 -14 8 -40 11 -59 3
-19 10 -45 15 -58 5 -13 6 -23 3 -23 -2 0 2 -14 11 -30 9 -16 12 -30 8 -30 -4
0 -2 -5 5 -12 7 -7 12 -22 12 -34 0 -12 3 -24 8 -26 4 -1 23 -34 41 -73 19
-38 54 -99 80 -135 47 -67 174 -200 225 -235 15 -11 33 -25 40 -31 6 -5 18
-13 26 -17 16 -8 45 -25 70 -42 8 -5 17 -10 20 -11 3 0 40 -17 84 -38 43 -20
85 -38 95 -39 9 -1 21 -5 26 -9 14 -8 180 -46 235 -53 25 -3 80 -7 122 -8 43
-1 78 -4 78 -7 0 -4 170 -4 880 0 l75 0 0 428 0 427 -497 1 c-525 0 -545 2
-613 48 -36 24 -50 40 -74 86 -20 37 -35 131 -31 185 1 17 2 35 1 40 0 11 -1
399 0 425 0 8 0 128 0 265 0 138 0 257 0 265 0 190 -1 433 -1 460 -1 19 -3
112 -4 205 -2 94 -7 181 -10 195 -3 14 -8 39 -12 55 -17 86 -78 223 -131 295
-17 23 -157 164 -185 186 -8 6 -34 24 -59 40 -24 15 -46 30 -48 31 -6 4 27 34
62 56 56 36 184 156 230 215 56 72 111 206 143 347 4 17 8 193 10 392 2 200 4
375 4 390 1 22 1 422 1 503 0 8 0 80 0 160 0 80 0 152 0 160 -4 214 2 275 27
334 31 69 94 116 177 131 56 11 167 12 186 3 9 -4 20 -4 23 0 11 10 606 9 606
-2 0 -5 6 -4 13 1 6 5 49 9 94 8 48 0 84 4 86 10 2 5 3 197 3 425 l-1 415
-526 2 c-290 1 -528 0 -530 -1z"/>
<path d="M7817 9563 c-2 -2 -31 -5 -63 -8 -116 -10 -150 -14 -219 -25 -38 -7
-83 -14 -100 -17 -16 -2 -75 -16 -130 -29 -55 -14 -111 -27 -125 -30 -14 -2
-34 -8 -45 -13 -19 -8 -97 -32 -120 -37 -29 -5 -300 -118 -303 -126 -2 -4 -10
-8 -17 -8 -29 0 -354 -184 -430 -242 -5 -5 -54 -41 -107 -81 -261 -196 -481
-430 -668 -710 -43 -65 -82 -126 -85 -137 -4 -11 -11 -20 -16 -20 -5 0 -9 -4
-9 -8 0 -4 -22 -49 -48 -99 -92 -172 -227 -522 -246 -634 -3 -19 -10 -50 -16
-69 -6 -19 -13 -50 -16 -69 -3 -18 -8 -42 -10 -52 -14 -66 -17 -79 -29 -179
-24 -192 -27 -288 -27 -952 -1 -587 -2 -648 -17 -649 -9 -1 -304 -2 -656 -3
l-640 -1 -1 -428 -2 -427 1076 2 1077 3 2 1095 c1 602 4 1113 7 1135 3 22 8
65 11 95 4 30 13 86 21 125 9 38 17 77 19 85 14 67 53 195 71 237 8 17 14 33
14 36 0 3 10 27 22 54 11 26 22 54 24 62 1 7 7 18 13 24 6 6 11 19 11 29 0 10
3 18 8 18 4 0 18 25 32 55 14 30 28 55 33 55 4 0 7 5 7 11 0 6 14 30 30 54 17
24 30 48 30 53 0 6 4 12 8 14 4 2 23 26 42 53 19 28 37 52 40 55 3 3 23 28 45
55 35 45 236 249 280 284 77 62 206 152 283 198 90 53 297 154 342 168 3 1 43
14 90 29 47 15 92 29 100 31 8 2 15 4 15 5 0 2 11 5 100 25 39 9 79 18 90 19
11 2 36 6 55 10 19 3 60 9 90 12 30 2 71 7 90 9 67 7 495 3 495 -5 0 -1 24 -3
54 -6 45 -4 127 -19 280 -50 46 -9 246 -76 259 -86 6 -6 12 -8 12 -5 0 11 192
-79 305 -143 48 -26 180 -115 216 -144 14 -12 40 -32 59 -46 241 -182 492
-513 623 -820 33 -78 79 -204 80 -222 1 -10 5 -18 10 -18 4 0 6 -4 3 -8 -3 -5
2 -28 10 -51 8 -24 16 -56 18 -71 2 -15 6 -31 9 -36 3 -5 8 -34 12 -64 4 -30
9 -66 11 -80 21 -125 23 -227 23 -1317 l1 -1023 1075 0 c709 0 1075 3 1076 10
3 36 2 81 -3 85 -2 3 -2 28 2 55 4 28 3 53 -2 56 -5 3 -5 10 -2 16 6 9 9 118
4 143 -1 6 -1 15 0 20 6 27 4 148 -3 152 -4 2 -4 9 -1 15 8 13 9 282 1 295 -3
5 -287 9 -656 8 -572 0 -651 2 -652 15 -1 8 -2 314 -4 680 -2 605 -7 791 -20
859 -2 13 -7 49 -11 80 -3 31 -8 63 -9 71 -2 8 -13 62 -25 120 -12 58 -23 112
-25 121 -7 34 -47 166 -60 202 -8 20 -12 37 -9 37 4 0 2 6 -3 13 -6 6 -16 30
-23 52 -7 22 -20 56 -28 75 -9 19 -16 40 -18 46 -4 22 -135 286 -166 336 -18
29 -40 65 -47 81 -8 15 -18 27 -23 27 -4 0 -8 5 -8 11 0 9 -94 153 -110 169
-3 3 -32 39 -65 80 -124 157 -297 331 -450 453 -33 27 -67 54 -75 61 -9 6 -38
27 -65 46 -28 19 -51 37 -53 42 -2 4 -8 8 -13 8 -5 0 -32 16 -59 35 -27 19
-52 35 -54 35 -2 0 -33 18 -68 39 -75 46 -304 157 -342 167 -14 3 -26 10 -26
14 0 4 -15 11 -32 15 -18 4 -35 8 -38 9 -3 1 -9 4 -15 7 -18 11 -227 77 -315
99 -91 23 -108 27 -155 35 -16 3 -52 10 -80 15 -27 5 -68 12 -90 15 -22 2 -56
7 -75 10 -19 3 -60 8 -90 11 -63 6 -598 13 -603 7z"/>
</g>
</svg>
